<mxfile host="drawio-plugin" modified="2022-08-16T17:17:59.351Z" agent="5.0 (Macintosh; Intel Mac OS X 10_15_7) AppleWebKit/537.36 (KHTML, like Gecko) Chrome/97.0.4692.45 Safari/537.36" etag="-EQDBj9f2LnFLaJrH4gR" version="15.5.4" type="embed" pages="2"><diagram id="23iRSUPoRavnBvh4doch" name="V2"><mxGraphModel dx="673" dy="633" grid="1" gridSize="10" guides="1" tooltips="1" connect="1" arrows="1" fold="1" page="1" pageScale="1" pageWidth="1169" pageHeight="827" background="#FFFFFF" math="0" shadow="0"><root><mxCell id="0"/><mxCell id="1" parent="0"/><mxCell id="40" value="Judging" style="shape=umlFrame;whiteSpace=wrap;html=1;width=70;height=30;fillColor=#647687;fontColor=#ffffff;strokeColor=#314354;dashed=1;strokeWidth=2;fontSize=14;swimlaneFillColor=#F5F5F5;" parent="1" vertex="1"><mxGeometry x="30" y="160" width="330" height="380" as="geometry"/></mxCell><mxCell id="5" value="Learning" style="shape=umlFrame;whiteSpace=wrap;html=1;width=70;height=30;fillColor=#76608a;fontColor=#ffffff;strokeColor=#432D57;dashed=1;strokeWidth=2;fontSize=14;swimlaneFillColor=#F5F5F5;" parent="1" vertex="1"><mxGeometry x="550" y="10" width="390" height="610" as="geometry"/></mxCell><mxCell id="19" value="" style="group;fontSize=14;" parent="1" vertex="1" connectable="0"><mxGeometry x="627" y="20" width="243" height="230" as="geometry"/></mxCell><mxCell id="8" value="Learning Agent" style="shape=umlFrame;whiteSpace=wrap;html=1;width=113;height=20;fillColor=#76608a;fontColor=#ffffff;strokeColor=#432D57;strokeWidth=1;swimlaneFillColor=none;align=left;spacingLeft=2;fontSize=14;" parent="19" vertex="1"><mxGeometry width="243" height="230" as="geometry"/></mxCell><mxCell id="4" value="Decision Process" style="rounded=0;whiteSpace=wrap;html=1;fillColor=#76608a;fontColor=#ffffff;strokeColor=#432D57;fontSize=14;" parent="19" vertex="1"><mxGeometry x="164" y="90" width="60" height="50" as="geometry"/></mxCell><mxCell id="6" value="Learning Process" style="rounded=0;whiteSpace=wrap;html=1;fillColor=#76608a;fontColor=#ffffff;strokeColor=#432D57;fontSize=14;" parent="19" vertex="1"><mxGeometry x="164" y="170" width="60" height="50" as="geometry"/></mxCell><mxCell id="17" style="rounded=1;orthogonalLoop=1;jettySize=auto;html=1;exitX=1;exitY=0.25;exitDx=0;exitDy=0;entryX=0;entryY=0.75;entryDx=0;entryDy=0;strokeWidth=2;fillColor=#6d8764;strokeColor=#3A5431;" parent="19" source="7" target="4" edge="1"><mxGeometry relative="1" as="geometry"/></mxCell><mxCell id="18" style="edgeStyle=none;rounded=1;orthogonalLoop=1;jettySize=auto;html=1;exitX=1;exitY=0.75;exitDx=0;exitDy=0;entryX=0;entryY=0.25;entryDx=0;entryDy=0;strokeWidth=2;fillColor=#6d8764;strokeColor=#3A5431;" parent="19" source="7" target="6" edge="1"><mxGeometry relative="1" as="geometry"/></mxCell><mxCell id="7" value="Identifying&lt;br&gt;&amp;amp;&lt;br&gt;addressing dilemmas" style="rounded=0;whiteSpace=wrap;html=1;fillColor=#6d8764;fontColor=#ffffff;strokeColor=#3A5431;fontSize=14;" parent="19" vertex="1"><mxGeometry x="63" y="110" width="70" height="90" as="geometry"/></mxCell><mxCell id="13" value="" style="endArrow=classic;html=1;rounded=0;exitX=0.25;exitY=0;exitDx=0;exitDy=0;entryX=0.25;entryY=1;entryDx=0;entryDy=0;fillColor=#76608a;strokeColor=#432D57;strokeWidth=2;" parent="19" source="6" target="4" edge="1"><mxGeometry width="50" height="50" relative="1" as="geometry"><mxPoint x="13" y="330" as="sourcePoint"/><mxPoint x="63" y="280" as="targetPoint"/></mxGeometry></mxCell><mxCell id="14" value="" style="endArrow=classic;html=1;rounded=0;entryX=0.75;entryY=0;entryDx=0;entryDy=0;exitX=0.75;exitY=1;exitDx=0;exitDy=0;fillColor=#76608a;strokeColor=#432D57;strokeWidth=2;" parent="19" source="4" target="6" edge="1"><mxGeometry width="50" height="50" relative="1" as="geometry"><mxPoint x="-37" y="320" as="sourcePoint"/><mxPoint x="13" y="270" as="targetPoint"/></mxGeometry></mxCell><mxCell id="15" value="Human User Preferences" style="shape=cylinder3;whiteSpace=wrap;html=1;boundedLbl=1;backgroundOutline=1;size=7;strokeWidth=1;fillColor=#6d8764;fontColor=#ffffff;strokeColor=#3A5431;" parent="19" vertex="1"><mxGeometry x="61" y="34" width="74" height="56" as="geometry"/></mxCell><mxCell id="16" value="" style="endArrow=classic;html=1;rounded=1;strokeWidth=2;exitX=0.5;exitY=1;exitDx=0;exitDy=0;exitPerimeter=0;fillColor=#6d8764;strokeColor=#3A5431;entryX=0.5;entryY=0;entryDx=0;entryDy=0;" parent="19" source="15" target="7" edge="1"><mxGeometry width="50" height="50" relative="1" as="geometry"><mxPoint x="3" y="410" as="sourcePoint"/><mxPoint x="-47" y="80" as="targetPoint"/></mxGeometry></mxCell><mxCell id="9" value="Actions" style="endArrow=classic;html=1;rounded=1;fillColor=#76608a;strokeColor=#49315E;exitX=1;exitY=0.5;exitDx=0;exitDy=0;edgeStyle=orthogonalEdgeStyle;entryX=1;entryY=0.5;entryDx=0;entryDy=0;strokeWidth=2;fontSize=14;labelBackgroundColor=#F5F5F5;fontColor=#432D57;" parent="1" source="4" target="11" edge="1"><mxGeometry x="0.3568" y="-30" width="50" height="50" relative="1" as="geometry"><mxPoint x="690" y="480" as="sourcePoint"/><mxPoint x="890" y="610" as="targetPoint"/><Array as="points"><mxPoint x="910" y="135"/><mxPoint x="910" y="555"/></Array><mxPoint as="offset"/></mxGeometry></mxCell><mxCell id="29" style="edgeStyle=orthogonalEdgeStyle;rounded=1;orthogonalLoop=1;jettySize=auto;html=1;exitX=1;exitY=0.5;exitDx=0;exitDy=0;entryX=0;entryY=0.25;entryDx=0;entryDy=0;labelBackgroundColor=#CCCCCC;fontSize=14;fontColor=#8000FF;strokeColor=#0080ff;strokeWidth=2;" parent="1" source="23" target="7" edge="1"><mxGeometry relative="1" as="geometry"><Array as="points"><mxPoint x="390" y="305"/><mxPoint x="390" y="153"/></Array></mxGeometry></mxCell><mxCell id="30" value="Reward" style="edgeLabel;html=1;align=center;verticalAlign=middle;resizable=0;points=[];fontSize=14;fontColor=#0080FF;labelBackgroundColor=#F5F5F5;" parent="29" vertex="1" connectable="0"><mxGeometry x="-0.0064" y="-1" relative="1" as="geometry"><mxPoint y="-18" as="offset"/></mxGeometry></mxCell><mxCell id="26" style="edgeStyle=orthogonalEdgeStyle;rounded=1;orthogonalLoop=1;jettySize=auto;html=1;exitX=0;exitY=0.5;exitDx=0;exitDy=0;entryX=0;entryY=0.25;entryDx=0;entryDy=0;labelBackgroundColor=#CCCCCC;fontSize=14;fontColor=#432D57;strokeWidth=2;strokeColor=#8000ff;" parent="1" source="11" target="23" edge="1"><mxGeometry relative="1" as="geometry"><Array as="points"><mxPoint x="60" y="555"/><mxPoint x="60" y="293"/></Array></mxGeometry></mxCell><mxCell id="28" value="Observations" style="edgeLabel;html=1;align=center;verticalAlign=middle;resizable=0;points=[];fontSize=14;fontColor=#8000FF;labelBackgroundColor=#F5F5F5;" parent="26" vertex="1" connectable="0"><mxGeometry x="-0.385" y="-2" relative="1" as="geometry"><mxPoint x="-11" y="17" as="offset"/></mxGeometry></mxCell><mxCell id="27" style="edgeStyle=orthogonalEdgeStyle;rounded=1;orthogonalLoop=1;jettySize=auto;html=1;exitX=0;exitY=0.5;exitDx=0;exitDy=0;entryX=0;entryY=0.75;entryDx=0;entryDy=0;labelBackgroundColor=#CCCCCC;fontSize=14;fontColor=#432D57;strokeColor=#8000ff;strokeWidth=2;" parent="1" source="11" target="7" edge="1"><mxGeometry relative="1" as="geometry"><Array as="points"><mxPoint x="580" y="555"/><mxPoint x="580" y="198"/></Array></mxGeometry></mxCell><mxCell id="31" value="" style="group" parent="1" vertex="1" connectable="0"><mxGeometry x="90" y="200" width="250" height="150" as="geometry"/></mxCell><mxCell id="20" value="Judging&lt;br&gt;Agent" style="shape=umlFrame;whiteSpace=wrap;html=1;fontSize=14;fontColor=#ffffff;strokeWidth=1;align=left;fillColor=#647687;strokeColor=#314354;spacingLeft=2;swimlaneFillColor=none;" parent="31" vertex="1"><mxGeometry width="250" height="150" as="geometry"/></mxCell><mxCell id="21" value="Moral Value" style="shape=cylinder3;whiteSpace=wrap;html=1;boundedLbl=1;backgroundOutline=1;size=7;fontSize=14;fontColor=#ffffff;strokeWidth=1;align=center;fillColor=#647687;strokeColor=#314354;" parent="31" vertex="1"><mxGeometry x="70" y="10" width="60" height="50" as="geometry"/></mxCell><mxCell id="22" value="Moral Rules" style="shape=cylinder3;whiteSpace=wrap;html=1;boundedLbl=1;backgroundOutline=1;size=7;fontSize=14;fontColor=#ffffff;strokeWidth=1;align=center;fillColor=#647687;strokeColor=#314354;" parent="31" vertex="1"><mxGeometry x="170" y="10" width="60" height="50" as="geometry"/></mxCell><mxCell id="23" value="Judgment&lt;br&gt;Process" style="rounded=0;whiteSpace=wrap;html=1;fontSize=14;fontColor=#ffffff;strokeWidth=1;align=center;fillColor=#647687;strokeColor=#314354;" parent="31" vertex="1"><mxGeometry x="100" y="80" width="100" height="50" as="geometry"/></mxCell><mxCell id="24" style="edgeStyle=none;rounded=1;orthogonalLoop=1;jettySize=auto;html=1;exitX=0.5;exitY=1;exitDx=0;exitDy=0;exitPerimeter=0;entryX=0.25;entryY=0;entryDx=0;entryDy=0;labelBackgroundColor=#CCCCCC;fontSize=14;fontColor=#432D57;strokeWidth=2;fillColor=#647687;strokeColor=#314354;" parent="31" source="21" target="23" edge="1"><mxGeometry relative="1" as="geometry"/></mxCell><mxCell id="25" style="edgeStyle=none;rounded=1;orthogonalLoop=1;jettySize=auto;html=1;exitX=0.5;exitY=1;exitDx=0;exitDy=0;exitPerimeter=0;entryX=0.75;entryY=0;entryDx=0;entryDy=0;labelBackgroundColor=#CCCCCC;fontSize=14;fontColor=#432D57;strokeWidth=2;fillColor=#647687;strokeColor=#314354;" parent="31" source="22" target="23" edge="1"><mxGeometry relative="1" as="geometry"/></mxCell><mxCell id="32" value="" style="group" parent="1" vertex="1" connectable="0"><mxGeometry x="90" y="370" width="250" height="150" as="geometry"/></mxCell><mxCell id="33" value="Judging&lt;br&gt;Agent" style="shape=umlFrame;whiteSpace=wrap;html=1;fontSize=14;fontColor=#ffffff;strokeWidth=1;align=left;fillColor=#647687;strokeColor=#314354;spacingLeft=2;swimlaneFillColor=none;" parent="32" vertex="1"><mxGeometry width="250" height="150" as="geometry"/></mxCell><mxCell id="34" value="Moral Value" style="shape=cylinder3;whiteSpace=wrap;html=1;boundedLbl=1;backgroundOutline=1;size=7;fontSize=14;fontColor=#ffffff;strokeWidth=1;align=center;fillColor=#647687;strokeColor=#314354;" parent="32" vertex="1"><mxGeometry x="70" y="10" width="60" height="50" as="geometry"/></mxCell><mxCell id="35" value="Moral Rules" style="shape=cylinder3;whiteSpace=wrap;html=1;boundedLbl=1;backgroundOutline=1;size=7;fontSize=14;fontColor=#ffffff;strokeWidth=1;align=center;fillColor=#647687;strokeColor=#314354;" parent="32" vertex="1"><mxGeometry x="170" y="10" width="60" height="50" as="geometry"/></mxCell><mxCell id="36" value="Judgment&lt;br&gt;Process" style="rounded=0;whiteSpace=wrap;html=1;fontSize=14;fontColor=#ffffff;strokeWidth=1;align=center;fillColor=#647687;strokeColor=#314354;" parent="32" vertex="1"><mxGeometry x="100" y="80" width="100" height="50" as="geometry"/></mxCell><mxCell id="37" style="edgeStyle=none;rounded=1;orthogonalLoop=1;jettySize=auto;html=1;exitX=0.5;exitY=1;exitDx=0;exitDy=0;exitPerimeter=0;entryX=0.25;entryY=0;entryDx=0;entryDy=0;labelBackgroundColor=#CCCCCC;fontSize=14;fontColor=#432D57;strokeWidth=2;fillColor=#647687;strokeColor=#314354;" parent="32" source="34" target="36" edge="1"><mxGeometry relative="1" as="geometry"/></mxCell><mxCell id="38" style="edgeStyle=none;rounded=1;orthogonalLoop=1;jettySize=auto;html=1;exitX=0.5;exitY=1;exitDx=0;exitDy=0;exitPerimeter=0;entryX=0.75;entryY=0;entryDx=0;entryDy=0;labelBackgroundColor=#CCCCCC;fontSize=14;fontColor=#432D57;strokeWidth=2;fillColor=#647687;strokeColor=#314354;" parent="32" source="35" target="36" edge="1"><mxGeometry relative="1" as="geometry"/></mxCell><mxCell id="39" style="edgeStyle=orthogonalEdgeStyle;rounded=1;orthogonalLoop=1;jettySize=auto;html=1;exitX=0;exitY=0.5;exitDx=0;exitDy=0;entryX=0;entryY=0.25;entryDx=0;entryDy=0;labelBackgroundColor=#CCCCCC;fontSize=14;fontColor=#8000FF;strokeColor=#8000FF;strokeWidth=2;" parent="1" source="11" target="36" edge="1"><mxGeometry relative="1" as="geometry"><Array as="points"><mxPoint x="60" y="555"/><mxPoint x="60" y="463"/></Array></mxGeometry></mxCell><mxCell id="42" style="edgeStyle=orthogonalEdgeStyle;rounded=1;orthogonalLoop=1;jettySize=auto;html=1;exitX=1;exitY=0.5;exitDx=0;exitDy=0;entryX=0;entryY=0.5;entryDx=0;entryDy=0;labelBackgroundColor=#CCCCCC;fontSize=14;fontColor=#8000FF;strokeColor=#0080FF;strokeWidth=2;" parent="1" source="36" target="7" edge="1"><mxGeometry relative="1" as="geometry"><Array as="points"><mxPoint x="410" y="475"/><mxPoint x="410" y="175"/></Array></mxGeometry></mxCell><mxCell id="44" value="" style="group;fontSize=14;" parent="1" vertex="1" connectable="0"><mxGeometry x="627" y="270" width="243" height="50" as="geometry"/></mxCell><mxCell id="45" value="Learning Agent" style="shape=umlFrame;whiteSpace=wrap;html=1;width=113;height=20;fillColor=#76608a;fontColor=#ffffff;strokeColor=#432D57;strokeWidth=1;swimlaneFillColor=none;align=left;spacingLeft=2;fontSize=14;" parent="44" vertex="1"><mxGeometry width="243" height="50" as="geometry"/></mxCell><mxCell id="56" value="" style="group;fontSize=14;" parent="1" vertex="1" connectable="0"><mxGeometry x="627" y="340" width="243" height="50" as="geometry"/></mxCell><mxCell id="57" value="Learning Agent" style="shape=umlFrame;whiteSpace=wrap;html=1;width=113;height=20;fillColor=#76608a;fontColor=#ffffff;strokeColor=#432D57;strokeWidth=1;swimlaneFillColor=none;align=left;spacingLeft=2;fontSize=14;" parent="56" vertex="1"><mxGeometry width="243" height="50" as="geometry"/></mxCell><mxCell id="380n8X8yCJsqFOG_aKDw-57" style="edgeStyle=orthogonalEdgeStyle;rounded=1;orthogonalLoop=1;jettySize=auto;html=1;entryX=1;entryY=0.5;entryDx=0;entryDy=0;strokeColor=#49315E;strokeWidth=2;" parent="1" source="45" target="11" edge="1"><mxGeometry relative="1" as="geometry"><Array as="points"><mxPoint x="910" y="295"/><mxPoint x="910" y="555"/></Array></mxGeometry></mxCell><mxCell id="380n8X8yCJsqFOG_aKDw-58" style="edgeStyle=orthogonalEdgeStyle;rounded=1;orthogonalLoop=1;jettySize=auto;html=1;entryX=1;entryY=0.5;entryDx=0;entryDy=0;strokeColor=#49315E;strokeWidth=2;" parent="1" source="57" target="11" edge="1"><mxGeometry relative="1" as="geometry"><Array as="points"><mxPoint x="910" y="365"/><mxPoint x="910" y="555"/></Array></mxGeometry></mxCell><mxCell id="380n8X8yCJsqFOG_aKDw-59" style="edgeStyle=orthogonalEdgeStyle;rounded=1;orthogonalLoop=1;jettySize=auto;html=1;entryX=0;entryY=0.84;entryDx=0;entryDy=0;entryPerimeter=0;strokeColor=#8000FF;strokeWidth=2;" parent="1" source="11" target="57" edge="1"><mxGeometry relative="1" as="geometry"><Array as="points"><mxPoint x="580" y="555"/><mxPoint x="580" y="382"/></Array></mxGeometry></mxCell><mxCell id="380n8X8yCJsqFOG_aKDw-60" style="edgeStyle=orthogonalEdgeStyle;rounded=1;orthogonalLoop=1;jettySize=auto;html=1;entryX=0;entryY=0.86;entryDx=0;entryDy=0;entryPerimeter=0;strokeColor=#8000FF;strokeWidth=2;" parent="1" source="11" target="45" edge="1"><mxGeometry relative="1" as="geometry"><Array as="points"><mxPoint x="580" y="555"/><mxPoint x="580" y="313"/></Array></mxGeometry></mxCell><mxCell id="380n8X8yCJsqFOG_aKDw-61" style="edgeStyle=orthogonalEdgeStyle;rounded=1;orthogonalLoop=1;jettySize=auto;html=1;entryX=-0.004;entryY=0.24;entryDx=0;entryDy=0;entryPerimeter=0;strokeColor=#0080FF;strokeWidth=2;" parent="1" source="23" target="45" edge="1"><mxGeometry relative="1" as="geometry"/></mxCell><mxCell id="380n8X8yCJsqFOG_aKDw-62" style="edgeStyle=orthogonalEdgeStyle;rounded=1;orthogonalLoop=1;jettySize=auto;html=1;strokeColor=#0080FF;strokeWidth=2;entryX=-0.004;entryY=0.46;entryDx=0;entryDy=0;entryPerimeter=0;" parent="1" source="36" target="45" edge="1"><mxGeometry relative="1" as="geometry"><mxPoint x="510" y="380" as="targetPoint"/><Array as="points"><mxPoint x="410" y="475"/><mxPoint x="410" y="293"/></Array></mxGeometry></mxCell><mxCell id="380n8X8yCJsqFOG_aKDw-63" value="" style="group" parent="1" vertex="1" connectable="0"><mxGeometry x="633.5" y="490" width="230" height="110" as="geometry"/></mxCell><mxCell id="10" value="Environment" style="shape=umlFrame;whiteSpace=wrap;html=1;width=87;height=30;fillColor=#76608a;fontColor=#ffffff;strokeColor=#432D57;strokeWidth=1;swimlaneFillColor=none;fontSize=14;" parent="380n8X8yCJsqFOG_aKDw-63" vertex="1"><mxGeometry width="230" height="110" as="geometry"/></mxCell><mxCell id="11" value="Compute Next State" style="rounded=0;whiteSpace=wrap;html=1;fillColor=#76608a;fontColor=#ffffff;strokeColor=#432D57;fontSize=14;" parent="380n8X8yCJsqFOG_aKDw-63" vertex="1"><mxGeometry x="70" y="40" width="90" height="50" as="geometry"/></mxCell><mxCell id="380n8X8yCJsqFOG_aKDw-64" style="edgeStyle=orthogonalEdgeStyle;rounded=1;orthogonalLoop=1;jettySize=auto;html=1;entryX=-0.004;entryY=0.5;entryDx=0;entryDy=0;entryPerimeter=0;strokeColor=#0080FF;strokeWidth=2;" parent="1" source="36" target="57" edge="1"><mxGeometry relative="1" as="geometry"><Array as="points"><mxPoint x="410" y="475"/><mxPoint x="410" y="365"/></Array></mxGeometry></mxCell><mxCell id="380n8X8yCJsqFOG_aKDw-65" style="edgeStyle=orthogonalEdgeStyle;rounded=1;orthogonalLoop=1;jettySize=auto;html=1;entryX=-0.004;entryY=0.24;entryDx=0;entryDy=0;entryPerimeter=0;strokeColor=#0080FF;strokeWidth=2;" parent="1" source="23" target="57" edge="1"><mxGeometry relative="1" as="geometry"><Array as="points"><mxPoint x="390" y="305"/><mxPoint x="390" y="352"/></Array></mxGeometry></mxCell><mxCell id="FwK6nbFVcCJSkiJdQoo2-57" style="edgeStyle=orthogonalEdgeStyle;rounded=1;orthogonalLoop=1;jettySize=auto;html=1;strokeWidth=2;strokeColor=#49315E;entryX=0;entryY=0.75;entryDx=0;entryDy=0;" parent="1" source="57" target="36" edge="1"><mxGeometry relative="1" as="geometry"><mxPoint x="910" y="680" as="targetPoint"/><Array as="points"><mxPoint x="910" y="365"/><mxPoint x="910" y="610"/><mxPoint x="80" y="610"/><mxPoint x="80" y="488"/></Array></mxGeometry></mxCell><mxCell id="FwK6nbFVcCJSkiJdQoo2-59" style="edgeStyle=orthogonalEdgeStyle;rounded=1;orthogonalLoop=1;jettySize=auto;html=1;entryX=0;entryY=0.75;entryDx=0;entryDy=0;strokeColor=#49315E;strokeWidth=2;" parent="1" source="57" target="23" edge="1"><mxGeometry relative="1" as="geometry"><Array as="points"><mxPoint x="910" y="365"/><mxPoint x="910" y="610"/><mxPoint x="80" y="610"/><mxPoint x="80" y="318"/></Array></mxGeometry></mxCell><mxCell id="58" value="" style="group;fontSize=14;" vertex="1" connectable="0" parent="1"><mxGeometry x="627" y="410" width="243" height="50" as="geometry"/></mxCell><mxCell id="59" value="Learning Agent" style="shape=umlFrame;whiteSpace=wrap;html=1;width=113;height=20;fillColor=#76608a;fontColor=#ffffff;strokeColor=#432D57;strokeWidth=1;swimlaneFillColor=none;align=left;spacingLeft=2;fontSize=14;" vertex="1" parent="58"><mxGeometry width="243" height="50" as="geometry"/></mxCell><mxCell id="60" style="edgeStyle=orthogonalEdgeStyle;rounded=1;orthogonalLoop=1;jettySize=auto;html=1;strokeWidth=2;entryX=0;entryY=0.22;entryDx=0;entryDy=0;entryPerimeter=0;strokeColor=#0080FF;" edge="1" parent="1" source="23" target="59"><mxGeometry relative="1" as="geometry"><mxPoint x="480" y="470" as="targetPoint"/><Array as="points"><mxPoint x="390" y="305"/><mxPoint x="390" y="421"/></Array></mxGeometry></mxCell><mxCell id="61" style="edgeStyle=orthogonalEdgeStyle;rounded=1;orthogonalLoop=1;jettySize=auto;html=1;entryX=0.004;entryY=0.5;entryDx=0;entryDy=0;entryPerimeter=0;strokeColor=#0080FF;strokeWidth=2;" edge="1" parent="1" source="36" target="59"><mxGeometry relative="1" as="geometry"><Array as="points"><mxPoint x="410" y="475"/><mxPoint x="410" y="435"/></Array></mxGeometry></mxCell><mxCell id="62" style="edgeStyle=orthogonalEdgeStyle;rounded=1;orthogonalLoop=1;jettySize=auto;html=1;strokeColor=#8000FF;strokeWidth=2;" edge="1" parent="1" source="11"><mxGeometry relative="1" as="geometry"><mxPoint x="630" y="449" as="targetPoint"/><Array as="points"><mxPoint x="580" y="555"/><mxPoint x="580" y="449"/></Array></mxGeometry></mxCell><mxCell id="63" value="" style="rounded=0;whiteSpace=wrap;html=1;fillColor=#F5F5F5;" vertex="1" parent="1"><mxGeometry x="50" y="10" width="220" height="140" as="geometry"/></mxCell><mxCell id="64" value="Legend" style="text;html=1;strokeColor=none;fillColor=none;align=center;verticalAlign=middle;whiteSpace=wrap;rounded=0;fontSize=14;spacingTop=8;" vertex="1" parent="1"><mxGeometry x="130" width="60" height="30" as="geometry"/></mxCell><mxCell id="66" value="Judging Components" style="rounded=0;whiteSpace=wrap;html=1;fontSize=14;fontColor=#ffffff;strokeWidth=1;align=center;fillColor=#647687;strokeColor=#314354;" vertex="1" parent="1"><mxGeometry x="80" y="70" width="160" height="30" as="geometry"/></mxCell><mxCell id="67" value="Dilemmas Management Components" style="rounded=0;whiteSpace=wrap;html=1;fontSize=14;fontColor=#ffffff;strokeWidth=1;align=center;fillColor=#6D8764;strokeColor=#314354;" vertex="1" parent="1"><mxGeometry x="80" y="110" width="160" height="30" as="geometry"/></mxCell><mxCell id="68" value="Learning Components" style="rounded=0;whiteSpace=wrap;html=1;fillColor=#76608a;fontColor=#ffffff;strokeColor=#432D57;fontSize=14;" vertex="1" parent="1"><mxGeometry x="80" y="30" width="160" height="30" as="geometry"/></mxCell><mxCell id="43" value="Dilemmas" style="shape=umlFrame;whiteSpace=wrap;html=1;labelBackgroundColor=none;fontSize=14;fontColor=#ffffff;strokeWidth=2;align=center;fillColor=#6d8764;strokeColor=#3A5431;width=70;height=30;dashed=1;swimlaneFillColor=none;" parent="1" vertex="1"><mxGeometry x="350" y="50" width="418" height="191" as="geometry"/></mxCell></root></mxGraphModel></diagram><diagram name="V1" id="xeHaKrybxLpveTEcaFY0"><mxGraphModel dx="1051" dy="841" grid="1" gridSize="10" guides="1" tooltips="1" connect="1" arrows="1" fold="1" page="1" pageScale="1" pageWidth="1169" pageHeight="827" background="#CCCCCC" math="0" shadow="0"><root><mxCell id="F9YGylIFrAf2VKxgGl8Z-0"/><mxCell id="F9YGylIFrAf2VKxgGl8Z-1" parent="F9YGylIFrAf2VKxgGl8Z-0"/><mxCell id="F9YGylIFrAf2VKxgGl8Z-2" value="Dilemmas" style="shape=umlFrame;whiteSpace=wrap;html=1;labelBackgroundColor=none;fontSize=14;fontColor=#ffffff;strokeWidth=2;align=center;fillColor=#6d8764;strokeColor=#3A5431;width=70;height=30;dashed=1;" parent="F9YGylIFrAf2VKxgGl8Z-1" vertex="1"><mxGeometry x="350" y="41" width="418" height="200" as="geometry"/></mxCell><mxCell id="F9YGylIFrAf2VKxgGl8Z-3" value="Judging" style="shape=umlFrame;whiteSpace=wrap;html=1;width=70;height=30;fillColor=#647687;fontColor=#ffffff;strokeColor=#314354;dashed=1;strokeWidth=2;fontSize=14;" parent="F9YGylIFrAf2VKxgGl8Z-1" vertex="1"><mxGeometry x="30" y="110" width="330" height="390" as="geometry"/></mxCell><mxCell id="F9YGylIFrAf2VKxgGl8Z-4" value="Learning" style="shape=umlFrame;whiteSpace=wrap;html=1;width=70;height=30;fillColor=#76608a;fontColor=#ffffff;strokeColor=#432D57;dashed=1;strokeWidth=2;fontSize=14;" parent="F9YGylIFrAf2VKxgGl8Z-1" vertex="1"><mxGeometry x="550" y="10" width="390" height="660" as="geometry"/></mxCell><mxCell id="F9YGylIFrAf2VKxgGl8Z-5" value="" style="group;fontSize=14;" parent="F9YGylIFrAf2VKxgGl8Z-1" vertex="1" connectable="0"><mxGeometry x="633.5" y="540" width="230" height="120" as="geometry"/></mxCell><mxCell id="F9YGylIFrAf2VKxgGl8Z-6" value="Environment" style="shape=umlFrame;whiteSpace=wrap;html=1;width=80;height=30;fillColor=#76608a;fontColor=#ffffff;strokeColor=#432D57;strokeWidth=1;swimlaneFillColor=none;" parent="F9YGylIFrAf2VKxgGl8Z-5" vertex="1"><mxGeometry width="230" height="120" as="geometry"/></mxCell><mxCell id="F9YGylIFrAf2VKxgGl8Z-7" value="Compute Next State" style="rounded=0;whiteSpace=wrap;html=1;fillColor=#76608a;fontColor=#ffffff;strokeColor=#432D57;fontSize=14;" parent="F9YGylIFrAf2VKxgGl8Z-5" vertex="1"><mxGeometry x="70" y="40" width="90" height="50" as="geometry"/></mxCell><mxCell id="F9YGylIFrAf2VKxgGl8Z-8" value="" style="group;fontSize=14;" parent="F9YGylIFrAf2VKxgGl8Z-1" vertex="1" connectable="0"><mxGeometry x="627" y="20" width="243" height="230" as="geometry"/></mxCell><mxCell id="F9YGylIFrAf2VKxgGl8Z-9" value="Learning&lt;br style=&quot;font-size: 14px;&quot;&gt;Agent" style="shape=umlFrame;whiteSpace=wrap;html=1;width=63;height=30;fillColor=#76608a;fontColor=#ffffff;strokeColor=#432D57;strokeWidth=1;swimlaneFillColor=none;align=left;spacingLeft=2;fontSize=14;" parent="F9YGylIFrAf2VKxgGl8Z-8" vertex="1"><mxGeometry width="243" height="230" as="geometry"/></mxCell><mxCell id="F9YGylIFrAf2VKxgGl8Z-10" value="Decision Process" style="rounded=0;whiteSpace=wrap;html=1;fillColor=#76608a;fontColor=#ffffff;strokeColor=#432D57;fontSize=14;" parent="F9YGylIFrAf2VKxgGl8Z-8" vertex="1"><mxGeometry x="153" y="90" width="60" height="50" as="geometry"/></mxCell><mxCell id="F9YGylIFrAf2VKxgGl8Z-11" value="Learning Process" style="rounded=0;whiteSpace=wrap;html=1;fillColor=#76608a;fontColor=#ffffff;strokeColor=#432D57;fontSize=14;" parent="F9YGylIFrAf2VKxgGl8Z-8" vertex="1"><mxGeometry x="153" y="170" width="60" height="50" as="geometry"/></mxCell><mxCell id="F9YGylIFrAf2VKxgGl8Z-12" style="rounded=1;orthogonalLoop=1;jettySize=auto;html=1;exitX=1;exitY=0.25;exitDx=0;exitDy=0;entryX=0;entryY=0.75;entryDx=0;entryDy=0;strokeWidth=2;fillColor=#6d8764;strokeColor=#3A5431;" parent="F9YGylIFrAf2VKxgGl8Z-8" source="F9YGylIFrAf2VKxgGl8Z-14" target="F9YGylIFrAf2VKxgGl8Z-10" edge="1"><mxGeometry relative="1" as="geometry"/></mxCell><mxCell id="F9YGylIFrAf2VKxgGl8Z-13" style="edgeStyle=none;rounded=1;orthogonalLoop=1;jettySize=auto;html=1;exitX=1;exitY=0.75;exitDx=0;exitDy=0;entryX=0;entryY=0.25;entryDx=0;entryDy=0;strokeWidth=2;fillColor=#6d8764;strokeColor=#3A5431;" parent="F9YGylIFrAf2VKxgGl8Z-8" source="F9YGylIFrAf2VKxgGl8Z-14" target="F9YGylIFrAf2VKxgGl8Z-11" edge="1"><mxGeometry relative="1" as="geometry"/></mxCell><mxCell id="F9YGylIFrAf2VKxgGl8Z-14" value="Identifying&lt;br&gt;&amp;amp;&lt;br&gt;addressing dilemmas" style="rounded=0;whiteSpace=wrap;html=1;fillColor=#6d8764;fontColor=#ffffff;strokeColor=#3A5431;fontSize=14;" parent="F9YGylIFrAf2VKxgGl8Z-8" vertex="1"><mxGeometry x="63" y="110" width="70" height="90" as="geometry"/></mxCell><mxCell id="F9YGylIFrAf2VKxgGl8Z-15" value="" style="endArrow=classic;html=1;rounded=0;exitX=0.25;exitY=0;exitDx=0;exitDy=0;entryX=0.25;entryY=1;entryDx=0;entryDy=0;fillColor=#76608a;strokeColor=#432D57;strokeWidth=2;" parent="F9YGylIFrAf2VKxgGl8Z-8" source="F9YGylIFrAf2VKxgGl8Z-11" target="F9YGylIFrAf2VKxgGl8Z-10" edge="1"><mxGeometry width="50" height="50" relative="1" as="geometry"><mxPoint x="13" y="330" as="sourcePoint"/><mxPoint x="63" y="280" as="targetPoint"/></mxGeometry></mxCell><mxCell id="F9YGylIFrAf2VKxgGl8Z-16" value="" style="endArrow=classic;html=1;rounded=0;entryX=0.75;entryY=0;entryDx=0;entryDy=0;exitX=0.75;exitY=1;exitDx=0;exitDy=0;fillColor=#76608a;strokeColor=#432D57;strokeWidth=2;" parent="F9YGylIFrAf2VKxgGl8Z-8" source="F9YGylIFrAf2VKxgGl8Z-10" target="F9YGylIFrAf2VKxgGl8Z-11" edge="1"><mxGeometry width="50" height="50" relative="1" as="geometry"><mxPoint x="-37" y="320" as="sourcePoint"/><mxPoint x="13" y="270" as="targetPoint"/></mxGeometry></mxCell><mxCell id="F9YGylIFrAf2VKxgGl8Z-17" value="Human User Preferences" style="shape=cylinder3;whiteSpace=wrap;html=1;boundedLbl=1;backgroundOutline=1;size=7;strokeWidth=1;fillColor=#6d8764;fontColor=#ffffff;strokeColor=#3A5431;" parent="F9YGylIFrAf2VKxgGl8Z-8" vertex="1"><mxGeometry x="61" y="30" width="74" height="56" as="geometry"/></mxCell><mxCell id="F9YGylIFrAf2VKxgGl8Z-18" value="" style="endArrow=classic;html=1;rounded=1;strokeWidth=2;exitX=0.5;exitY=1;exitDx=0;exitDy=0;exitPerimeter=0;fillColor=#6d8764;strokeColor=#3A5431;entryX=0.5;entryY=0;entryDx=0;entryDy=0;" parent="F9YGylIFrAf2VKxgGl8Z-8" source="F9YGylIFrAf2VKxgGl8Z-17" target="F9YGylIFrAf2VKxgGl8Z-14" edge="1"><mxGeometry width="50" height="50" relative="1" as="geometry"><mxPoint x="3" y="410" as="sourcePoint"/><mxPoint x="-47" y="80" as="targetPoint"/></mxGeometry></mxCell><mxCell id="F9YGylIFrAf2VKxgGl8Z-19" value="Actions" style="endArrow=classic;html=1;rounded=1;fillColor=#76608a;strokeColor=#49315E;exitX=1;exitY=0.5;exitDx=0;exitDy=0;edgeStyle=orthogonalEdgeStyle;entryX=1;entryY=0.5;entryDx=0;entryDy=0;strokeWidth=2;fontSize=14;labelBackgroundColor=#CCCCCC;fontColor=#432D57;" parent="F9YGylIFrAf2VKxgGl8Z-1" source="F9YGylIFrAf2VKxgGl8Z-10" target="F9YGylIFrAf2VKxgGl8Z-7" edge="1"><mxGeometry x="-0.0404" y="-30" width="50" height="50" relative="1" as="geometry"><mxPoint x="690" y="480" as="sourcePoint"/><mxPoint x="890" y="610" as="targetPoint"/><Array as="points"><mxPoint x="910" y="135"/><mxPoint x="910" y="605"/></Array><mxPoint as="offset"/></mxGeometry></mxCell><mxCell id="F9YGylIFrAf2VKxgGl8Z-20" style="edgeStyle=orthogonalEdgeStyle;rounded=1;orthogonalLoop=1;jettySize=auto;html=1;exitX=1;exitY=0.5;exitDx=0;exitDy=0;entryX=0;entryY=0.25;entryDx=0;entryDy=0;labelBackgroundColor=#CCCCCC;fontSize=14;fontColor=#8000FF;strokeColor=#0080ff;strokeWidth=2;" parent="F9YGylIFrAf2VKxgGl8Z-1" source="F9YGylIFrAf2VKxgGl8Z-29" target="F9YGylIFrAf2VKxgGl8Z-14" edge="1"><mxGeometry relative="1" as="geometry"><Array as="points"><mxPoint x="390" y="265"/><mxPoint x="390" y="153"/></Array></mxGeometry></mxCell><mxCell id="F9YGylIFrAf2VKxgGl8Z-21" value="Reward" style="edgeLabel;html=1;align=center;verticalAlign=middle;resizable=0;points=[];fontSize=14;fontColor=#0080FF;labelBackgroundColor=#CCCCCC;" parent="F9YGylIFrAf2VKxgGl8Z-20" vertex="1" connectable="0"><mxGeometry x="-0.0064" y="-1" relative="1" as="geometry"><mxPoint y="-18" as="offset"/></mxGeometry></mxCell><mxCell id="F9YGylIFrAf2VKxgGl8Z-22" style="edgeStyle=orthogonalEdgeStyle;rounded=1;orthogonalLoop=1;jettySize=auto;html=1;exitX=0;exitY=0.5;exitDx=0;exitDy=0;entryX=0;entryY=0.5;entryDx=0;entryDy=0;labelBackgroundColor=#CCCCCC;fontSize=14;fontColor=#432D57;strokeWidth=2;strokeColor=#8000ff;" parent="F9YGylIFrAf2VKxgGl8Z-1" source="F9YGylIFrAf2VKxgGl8Z-7" target="F9YGylIFrAf2VKxgGl8Z-29" edge="1"><mxGeometry relative="1" as="geometry"><Array as="points"><mxPoint x="60" y="605"/><mxPoint x="60" y="265"/></Array></mxGeometry></mxCell><mxCell id="F9YGylIFrAf2VKxgGl8Z-23" value="Observations" style="edgeLabel;html=1;align=center;verticalAlign=middle;resizable=0;points=[];fontSize=14;fontColor=#8000FF;labelBackgroundColor=#CCCCCC;" parent="F9YGylIFrAf2VKxgGl8Z-22" vertex="1" connectable="0"><mxGeometry x="-0.385" y="-2" relative="1" as="geometry"><mxPoint x="-11" y="17" as="offset"/></mxGeometry></mxCell><mxCell id="F9YGylIFrAf2VKxgGl8Z-24" style="edgeStyle=orthogonalEdgeStyle;rounded=1;orthogonalLoop=1;jettySize=auto;html=1;exitX=0;exitY=0.5;exitDx=0;exitDy=0;entryX=0;entryY=0.75;entryDx=0;entryDy=0;labelBackgroundColor=#CCCCCC;fontSize=14;fontColor=#432D57;strokeColor=#8000ff;strokeWidth=2;" parent="F9YGylIFrAf2VKxgGl8Z-1" source="F9YGylIFrAf2VKxgGl8Z-7" target="F9YGylIFrAf2VKxgGl8Z-14" edge="1"><mxGeometry relative="1" as="geometry"><Array as="points"><mxPoint x="580" y="605"/><mxPoint x="580" y="198"/></Array></mxGeometry></mxCell><mxCell id="F9YGylIFrAf2VKxgGl8Z-25" value="" style="group" parent="F9YGylIFrAf2VKxgGl8Z-1" vertex="1" connectable="0"><mxGeometry x="90" y="160" width="250" height="150" as="geometry"/></mxCell><mxCell id="F9YGylIFrAf2VKxgGl8Z-26" value="Judging&lt;br&gt;Agent" style="shape=umlFrame;whiteSpace=wrap;html=1;fontSize=14;fontColor=#ffffff;strokeWidth=1;align=left;fillColor=#647687;strokeColor=#314354;spacingLeft=2;swimlaneFillColor=none;" parent="F9YGylIFrAf2VKxgGl8Z-25" vertex="1"><mxGeometry width="250" height="150" as="geometry"/></mxCell><mxCell id="F9YGylIFrAf2VKxgGl8Z-27" value="Moral Value" style="shape=cylinder3;whiteSpace=wrap;html=1;boundedLbl=1;backgroundOutline=1;size=7;fontSize=14;fontColor=#ffffff;strokeWidth=1;align=center;fillColor=#647687;strokeColor=#314354;" parent="F9YGylIFrAf2VKxgGl8Z-25" vertex="1"><mxGeometry x="70" y="10" width="60" height="50" as="geometry"/></mxCell><mxCell id="F9YGylIFrAf2VKxgGl8Z-28" value="Moral Rules" style="shape=cylinder3;whiteSpace=wrap;html=1;boundedLbl=1;backgroundOutline=1;size=7;fontSize=14;fontColor=#ffffff;strokeWidth=1;align=center;fillColor=#647687;strokeColor=#314354;" parent="F9YGylIFrAf2VKxgGl8Z-25" vertex="1"><mxGeometry x="170" y="10" width="60" height="50" as="geometry"/></mxCell><mxCell id="F9YGylIFrAf2VKxgGl8Z-29" value="Judgment&lt;br&gt;Process" style="rounded=0;whiteSpace=wrap;html=1;fontSize=14;fontColor=#ffffff;strokeWidth=1;align=center;fillColor=#647687;strokeColor=#314354;" parent="F9YGylIFrAf2VKxgGl8Z-25" vertex="1"><mxGeometry x="100" y="80" width="100" height="50" as="geometry"/></mxCell><mxCell id="F9YGylIFrAf2VKxgGl8Z-30" style="edgeStyle=none;rounded=1;orthogonalLoop=1;jettySize=auto;html=1;exitX=0.5;exitY=1;exitDx=0;exitDy=0;exitPerimeter=0;entryX=0.25;entryY=0;entryDx=0;entryDy=0;labelBackgroundColor=#CCCCCC;fontSize=14;fontColor=#432D57;strokeWidth=2;fillColor=#647687;strokeColor=#314354;" parent="F9YGylIFrAf2VKxgGl8Z-25" source="F9YGylIFrAf2VKxgGl8Z-27" target="F9YGylIFrAf2VKxgGl8Z-29" edge="1"><mxGeometry relative="1" as="geometry"/></mxCell><mxCell id="F9YGylIFrAf2VKxgGl8Z-31" style="edgeStyle=none;rounded=1;orthogonalLoop=1;jettySize=auto;html=1;exitX=0.5;exitY=1;exitDx=0;exitDy=0;exitPerimeter=0;entryX=0.75;entryY=0;entryDx=0;entryDy=0;labelBackgroundColor=#CCCCCC;fontSize=14;fontColor=#432D57;strokeWidth=2;fillColor=#647687;strokeColor=#314354;" parent="F9YGylIFrAf2VKxgGl8Z-25" source="F9YGylIFrAf2VKxgGl8Z-28" target="F9YGylIFrAf2VKxgGl8Z-29" edge="1"><mxGeometry relative="1" as="geometry"/></mxCell><mxCell id="F9YGylIFrAf2VKxgGl8Z-32" value="" style="group" parent="F9YGylIFrAf2VKxgGl8Z-1" vertex="1" connectable="0"><mxGeometry x="90" y="330" width="250" height="150" as="geometry"/></mxCell><mxCell id="F9YGylIFrAf2VKxgGl8Z-33" value="Judging&lt;br&gt;Agent" style="shape=umlFrame;whiteSpace=wrap;html=1;fontSize=14;fontColor=#ffffff;strokeWidth=1;align=left;fillColor=#647687;strokeColor=#314354;spacingLeft=2;swimlaneFillColor=none;" parent="F9YGylIFrAf2VKxgGl8Z-32" vertex="1"><mxGeometry width="250" height="150" as="geometry"/></mxCell><mxCell id="F9YGylIFrAf2VKxgGl8Z-34" value="Moral Value" style="shape=cylinder3;whiteSpace=wrap;html=1;boundedLbl=1;backgroundOutline=1;size=7;fontSize=14;fontColor=#ffffff;strokeWidth=1;align=center;fillColor=#647687;strokeColor=#314354;" parent="F9YGylIFrAf2VKxgGl8Z-32" vertex="1"><mxGeometry x="70" y="10" width="60" height="50" as="geometry"/></mxCell><mxCell id="F9YGylIFrAf2VKxgGl8Z-35" value="Moral Rules" style="shape=cylinder3;whiteSpace=wrap;html=1;boundedLbl=1;backgroundOutline=1;size=7;fontSize=14;fontColor=#ffffff;strokeWidth=1;align=center;fillColor=#647687;strokeColor=#314354;" parent="F9YGylIFrAf2VKxgGl8Z-32" vertex="1"><mxGeometry x="170" y="10" width="60" height="50" as="geometry"/></mxCell><mxCell id="F9YGylIFrAf2VKxgGl8Z-36" value="Judgment&lt;br&gt;Process" style="rounded=0;whiteSpace=wrap;html=1;fontSize=14;fontColor=#ffffff;strokeWidth=1;align=center;fillColor=#647687;strokeColor=#314354;" parent="F9YGylIFrAf2VKxgGl8Z-32" vertex="1"><mxGeometry x="100" y="80" width="100" height="50" as="geometry"/></mxCell><mxCell id="F9YGylIFrAf2VKxgGl8Z-37" style="edgeStyle=none;rounded=1;orthogonalLoop=1;jettySize=auto;html=1;exitX=0.5;exitY=1;exitDx=0;exitDy=0;exitPerimeter=0;entryX=0.25;entryY=0;entryDx=0;entryDy=0;labelBackgroundColor=#CCCCCC;fontSize=14;fontColor=#432D57;strokeWidth=2;fillColor=#647687;strokeColor=#314354;" parent="F9YGylIFrAf2VKxgGl8Z-32" source="F9YGylIFrAf2VKxgGl8Z-34" target="F9YGylIFrAf2VKxgGl8Z-36" edge="1"><mxGeometry relative="1" as="geometry"/></mxCell><mxCell id="F9YGylIFrAf2VKxgGl8Z-38" style="edgeStyle=none;rounded=1;orthogonalLoop=1;jettySize=auto;html=1;exitX=0.5;exitY=1;exitDx=0;exitDy=0;exitPerimeter=0;entryX=0.75;entryY=0;entryDx=0;entryDy=0;labelBackgroundColor=#CCCCCC;fontSize=14;fontColor=#432D57;strokeWidth=2;fillColor=#647687;strokeColor=#314354;" parent="F9YGylIFrAf2VKxgGl8Z-32" source="F9YGylIFrAf2VKxgGl8Z-35" target="F9YGylIFrAf2VKxgGl8Z-36" edge="1"><mxGeometry relative="1" as="geometry"/></mxCell><mxCell id="F9YGylIFrAf2VKxgGl8Z-39" style="edgeStyle=orthogonalEdgeStyle;rounded=1;orthogonalLoop=1;jettySize=auto;html=1;exitX=0;exitY=0.5;exitDx=0;exitDy=0;entryX=0;entryY=0.5;entryDx=0;entryDy=0;labelBackgroundColor=#CCCCCC;fontSize=14;fontColor=#8000FF;strokeColor=#8000FF;strokeWidth=2;" parent="F9YGylIFrAf2VKxgGl8Z-1" source="F9YGylIFrAf2VKxgGl8Z-7" target="F9YGylIFrAf2VKxgGl8Z-36" edge="1"><mxGeometry relative="1" as="geometry"><Array as="points"><mxPoint x="60" y="605"/><mxPoint x="60" y="435"/></Array></mxGeometry></mxCell><mxCell id="F9YGylIFrAf2VKxgGl8Z-40" style="edgeStyle=orthogonalEdgeStyle;rounded=1;orthogonalLoop=1;jettySize=auto;html=1;exitX=1;exitY=0.5;exitDx=0;exitDy=0;entryX=0;entryY=0.5;entryDx=0;entryDy=0;labelBackgroundColor=#CCCCCC;fontSize=14;fontColor=#8000FF;strokeColor=#0080FF;strokeWidth=2;" parent="F9YGylIFrAf2VKxgGl8Z-1" source="F9YGylIFrAf2VKxgGl8Z-36" target="F9YGylIFrAf2VKxgGl8Z-14" edge="1"><mxGeometry relative="1" as="geometry"><Array as="points"><mxPoint x="410" y="435"/><mxPoint x="410" y="175"/></Array></mxGeometry></mxCell></root></mxGraphModel></diagram></mxfile>